<svg xmlns="http://www.w3.org/2000/svg" width="115" height="82" viewBox="0 0 115 82">
    <g fill="none" fill-rule="evenodd">
        <rect width="90" height="66" x="12" y="16" fill="#000" rx="27"/>
        <rect width="26" height="26" y="36" fill="#000" rx="10"/>
        <rect width="26" height="26" x="89" y="36" fill="#000" rx="10"/>
        <rect width="16" height="28" x="49" fill="#000" rx="8"/>
        <rect width="53" height="14" x="31" y="54" fill="#FFF" rx="7"/>
        <rect width="57" height="14" x="29" y="54" fill="#FFF" rx="7"/>
        <rect width="7" height="14" x="45" y="34" fill="#FFF" rx="3.5"/>
        <rect width="7" height="14" x="63" y="34" fill="#FFF" rx="3.5"/>
        <path fill="#D8D8D8" stroke="#979797" d="M36.5 54.5h1v13h-1zM44.5 54.5h1v13h-1zM52.5 54.5h1v13h-1zM60.5 54.5h1v13h-1zM68.5 54.5h1v13h-1zM76.5 54.5h1v13h-1z"/>
    </g>
</svg>
